<svg xmlns="http://www.w3.org/2000/svg" width="1000" height="1000" viewBox="0 0 1000 1000"><path stroke="#fff" stroke-width="91.809" stroke-miterlimit="3" d="M48.034 499.245c0-250.765 200.725-454.05 448.333-454.05 247.613 0 448.332 203.285 448.332 454.05 0 250.766-200.72 454.05-448.333 454.05-247.608 0-448.333-203.284-448.333-454.05z" fill="none"/><path fill="#1D1D1B" d="M48.034 499.245c0-250.765 200.725-454.05 448.333-454.05 247.613 0 448.332 203.285 448.332 454.05 0 250.766-200.72 454.05-448.333 454.05-247.608 0-448.333-203.284-448.333-454.05z"/><path fill="#fff" d="M186.018 167.866"/><path fill="#fff" d="M393.763 830.58c-44.18-91.9-20.65-144.563 13.287-194.174 37.173-54.344 46.77-108.14 46.77-108.14s29.214 37.98 17.535 97.4c51.633-57.458 61.37-149.016 53.584-184.085C641.633 523.15 691.505 699.728 624.3 830.58c357.484-202.283 88.928-504.903 42.17-539.01 15.592 34.088 18.524 91.808-12.944 119.798-53.293-202.1-185.086-243.52-185.086-243.52 15.594 104.237-56.496 218.2-125.997 303.354-2.447-41.56-5.035-70.25-26.888-110.01-4.904 75.507-62.604 137.04-78.217 212.702-21.165 102.416 15.845 177.43 156.466 256.666l-.04.02z"/></svg>